<svg xmlns="http://www.w3.org/2000/svg" width="1240" height="1240" viewBox="0 0 1240 1240" version="1.1">
	<path d="M 0 620.001 L 0 1240.002 620.250 1239.751 L 1240.500 1239.500 1240.751 619.750 L 1241.002 0 620.501 0 L 0 0 0 620.001 M 0.497 620.500 C 0.497 961.500, 0.611 1101.149, 0.750 930.832 C 0.889 760.515, 0.889 481.515, 0.750 310.832 C 0.611 140.149, 0.497 279.500, 0.497 620.500 M 453.500 331.663 C 433.011 334.325, 416.022 340.173, 401.132 349.689 C 387.411 358.458, 365.171 379.239, 354.781 393 C 346.145 404.437, 331.505 428.215, 325.535 440.500 C 303.949 484.923, 296.128 524.707, 297.325 584 C 297.630 599.125, 298.112 612.850, 298.396 614.500 C 298.680 616.150, 299.644 622.900, 300.538 629.500 C 304.725 660.416, 314.442 690.621, 325.819 708.081 C 336.206 724.022, 335.536 723.060, 340.973 729.885 C 343.433 732.973, 347.146 737.152, 349.223 739.172 C 351.300 741.191, 353 743.115, 353 743.448 C 353 744.947, 365.366 756, 367.043 756 C 367.604 756, 368.285 756.580, 368.557 757.289 C 368.830 757.998, 370.023 758.651, 371.209 758.741 C 372.396 758.830, 373.756 759.600, 374.233 760.452 C 374.710 761.304, 376.426 762, 378.050 762 C 379.672 762, 381 762.509, 381 763.131 C 381 763.870, 382.243 764.060, 384.588 763.679 C 387.367 763.229, 388.059 763.405, 387.654 764.460 C 387.248 765.518, 387.756 765.643, 389.926 765.021 C 391.463 764.580, 393.674 763.710, 394.838 763.087 C 396.666 762.108, 396.879 762.195, 396.396 763.727 C 395.908 765.272, 396.040 765.251, 397.418 763.559 C 398.288 762.491, 399 762.007, 399 762.483 C 399 762.959, 400.125 762.292, 401.500 761 C 403.943 758.705, 404.986 756.273, 403 757.500 C 401.668 758.323, 401.738 757.345, 403.201 754.684 C 404.533 752.263, 404.942 744, 403.730 744 C 403.307 744, 403.164 742.882, 403.411 741.516 C 403.659 740.150, 403.443 738.774, 402.931 738.457 C 402.419 738.141, 402 736.997, 402 735.916 C 402 734.835, 401.043 731.374, 399.874 728.225 C 393.966 712.321, 390.249 700.562, 386.525 686 C 382.542 670.426, 379.968 650.474, 379.964 635.148 C 379.956 601.326, 390.202 561.941, 408.604 525.051 C 425.900 490.379, 435.616 476.304, 454.477 458.598 C 461.450 452.053, 470.369 442.828, 474.297 438.098 C 503.227 403.267, 503.135 403.390, 509.593 391.010 C 513.340 383.828, 513.500 383.129, 513.492 374.010 C 513.483 362.553, 512.257 358.110, 506.880 350.059 C 498.686 337.787, 486.570 332.127, 467.329 331.581 C 461.373 331.411, 455.150 331.448, 453.500 331.663 M 847.311 475.946 C 843.532 477.662, 843.172 477.684, 843.642 476.174 C 844.055 474.848, 843.835 474.903, 842.582 476.441 C 841.712 477.509, 841 478.016, 841 477.569 C 841 477.121, 840.305 477.332, 839.454 478.038 C 838.604 478.743, 838.140 479.922, 838.422 480.658 C 838.704 481.393, 837.957 483.653, 836.762 485.679 C 835.363 488.049, 834.988 489.496, 835.709 489.736 C 836.460 489.987, 836.551 491.080, 835.984 493.055 C 835.472 494.841, 835.513 496, 836.089 496 C 836.612 496, 836.836 497.118, 836.589 498.484 C 836.341 499.850, 836.498 501.190, 836.938 501.462 C 837.378 501.733, 838.036 503.825, 838.401 506.109 C 838.767 508.394, 840.146 512.566, 841.467 515.381 C 846.691 526.516, 855.051 557.520, 858.077 576.979 C 862.101 602.860, 860.652 625.024, 852.845 657 C 847.529 678.774, 841.620 694.535, 830.352 717 C 813.298 751, 804.644 763.380, 784.952 781.944 C 765.967 799.840, 739.017 832.783, 731.397 847.406 C 726.974 855.896, 726.631 857.098, 726.235 865.500 C 725.722 876.375, 727.701 882.658, 734.589 892.014 C 739.862 899.177, 745.530 903.028, 755.331 906.106 C 761.381 908.006, 764.684 908.350, 776.500 908.312 C 793.872 908.256, 806.511 905.685, 823.660 898.716 C 841.252 891.568, 870.516 866.764, 886.061 845.827 C 896.178 832.199, 910.841 807.679, 917.052 794 C 936.319 751.565, 942.491 720.271, 942.497 665 C 942.501 623.654, 940.938 610.254, 931.997 574.981 C 927.270 556.335, 919.674 539.495, 909.250 524.557 C 907.462 521.996, 906 519.472, 906 518.950 C 906 518.427, 905.619 518, 905.153 518 C 904.687 518, 903.899 517.138, 903.403 516.085 C 902.285 513.714, 896.878 507.186, 891.250 501.413 C 888.913 499.015, 887 496.804, 887 496.500 C 887 495.085, 875.478 484.781, 872.706 483.717 C 871.768 483.357, 871 482.694, 871 482.244 C 871 481.794, 870.018 481.352, 868.817 481.261 C 867.616 481.171, 866.244 480.400, 865.767 479.548 C 865.291 478.697, 863.798 478, 862.450 478 C 861.103 478, 860 477.550, 860 477 C 860 476.450, 858.425 476, 856.500 476 C 854.575 476, 853 475.550, 853 475 C 853 473.614, 852.128 473.759, 847.311 475.946" stroke="none" fill="black" fill-rule="evenodd"/>
</svg>